<svg xmlns="http://www.w3.org/2000/svg" width="40" height="40"><g data-name="그룹 24912"><g data-name="그룹 24797"><g fill="#e50019" data-name="그룹 15092"><path d="M20.13 8.989a13.215 13.215 0 0 0-9.312 3.775 12.563 12.563 0 0 0 0 18.038 13.374 13.374 0 0 0 18.625 0 12.563 12.563 0 0 0 0-18.038 13.215 13.215 0 0 0-9.313-3.775m0-4a16.965 16.965 0 0 1 17.13 16.795 16.965 16.965 0 0 1-17.13 16.794A16.965 16.965 0 0 1 3 21.784 16.965 16.965 0 0 1 20.13 4.989Z" data-name="타원 888"/><path d="M24.313 28.618a1.994 1.994 0 0 1-1.414-.586l-4.174-4.174a2 2 0 0 1-.586-1.414v-7.906a2 2 0 0 1 4 0v7.078l3.589 3.588a2 2 0 0 1-1.414 3.414Z" data-name="패스 10767"/><path d="M3 10.271a1.994 1.994 0 0 1-1.414-.586 2 2 0 0 1 0-2.828l5.271-5.271a2 2 0 0 1 2.828 0 2 2 0 0 1 0 2.828L4.414 9.685A1.994 1.994 0 0 1 3 10.271Z" data-name="선 257"/><path d="M37.261 10.271a1.994 1.994 0 0 1-1.414-.586l-5.271-5.271a2 2 0 0 1 0-2.828 2 2 0 0 1 2.828 0l5.271 5.271a2 2 0 0 1-1.414 3.414Z" data-name="선 258"/></g></g><path fill="none" d="M0 0h40v40H0z" data-name="사각형 24998"/></g></svg>